<svg width="150" height="64" viewBox="0 0 150 64" fill="none" color="#6688BD" xmlns="http://www.w3.org/2000/svg">
    <g clip-path="url(#clip0_234_5)">
        <path d="M21.4969 1.00481H148.659L128.471 63.0244H1.30936L21.4969 1.00481Z" stroke="currentColor" stroke-width="2" stroke-miterlimit="22.9256"/>
        <path d="M6.01556 49.8816H132.749" stroke="currentColor" stroke-width="2" stroke-miterlimit="22.9256"/>
        <path d="M13.5091 52.6518C14.1001 52.6518 14.5762 52.6895 14.9356 52.7628C15.2948 52.8361 15.5762 52.9411 15.7773 53.0818C15.9606 53.2046 16.0956 53.3651 16.1827 53.5593C16.2697 53.7555 16.2999 53.9894 16.2777 54.2588C16.2472 54.6273 16.1501 54.9463 15.9815 55.2178C15.8151 55.4893 15.5764 55.725 15.2696 55.9291C14.9605 56.1312 14.5581 56.3214 14.0604 56.4939L14.042 56.5592C14.4254 56.7058 14.7137 56.9099 14.909 57.1735C15.1021 57.437 15.1846 57.7401 15.1561 58.0849C15.1344 58.3485 15.0753 58.5962 14.9762 58.8319C14.8774 59.0658 14.7444 59.2719 14.5792 59.4522C14.4117 59.6324 14.2 59.8009 13.9422 59.9574C13.6843 60.1139 13.4208 60.2349 13.1561 60.318C12.8913 60.4012 12.5788 60.4646 12.2162 60.5083C11.8537 60.5538 11.4242 60.5756 10.9278 60.5756H7.51102L7.63068 60.1932C7.81079 60.1456 7.95135 60.0822 8.05267 60.0009C8.15387 59.9197 8.24292 59.8048 8.32181 59.6562C8.40291 59.5056 8.48726 59.2917 8.57728 59.0083L10.1177 54.2191C10.1925 53.9913 10.237 53.7634 10.2556 53.5395C10.2689 53.3771 10.2379 53.2582 10.1625 53.1829C10.087 53.1076 9.95785 53.0581 9.775 53.0342L9.89466 52.6518H13.5091ZM12.3545 56.1233C12.7221 56.1233 13.0508 56.0461 13.3384 55.8935C13.626 55.7409 13.8541 55.5288 14.0249 55.2575C14.1932 54.9879 14.292 54.6749 14.3209 54.3242C14.3485 53.9913 14.2573 53.7417 14.0432 53.5772C13.831 53.4127 13.4853 53.3315 13.006 53.3315C12.7117 53.3315 12.4638 53.3414 12.2603 53.3592L11.3726 56.1233H12.3545ZM10.173 59.8781C10.2605 59.8861 10.3997 59.892 10.5908 59.894C10.7819 59.896 10.9108 59.896 10.9774 59.896C11.3814 59.896 11.7166 59.8445 11.9828 59.7434C12.2492 59.6403 12.4714 59.4997 12.647 59.3253C12.8227 59.1489 12.9673 58.933 13.0787 58.6773C13.19 58.4218 13.2567 58.1603 13.2787 57.8927C13.3084 57.5341 13.219 57.2627 13.0107 57.0783C12.8046 56.8941 12.4769 56.803 12.0278 56.803H11.1573L10.173 59.8781ZM24.0669 52.6518L23.4657 54.5204H22.6597C22.6685 54.1537 22.6534 53.8962 22.6096 53.7496C22.5681 53.6009 22.4929 53.496 22.3844 53.4306C22.276 53.3632 22.1197 53.3315 21.9133 53.3315H20.334L19.4378 56.1174H20.3124C20.4801 56.1174 20.6241 56.0917 20.7421 56.0421C20.8625 55.9905 20.9766 55.9074 21.0854 55.7884C21.1939 55.6716 21.3041 55.507 21.418 55.2991H22.1099L21.3117 57.655H20.6627C20.6812 57.431 20.6825 57.2587 20.6622 57.1398C20.6421 57.019 20.5956 56.9318 20.5205 56.8782C20.4455 56.8227 20.3101 56.7969 20.1167 56.7969H19.2228L18.2256 59.896H19.6419C19.8267 59.896 19.9716 59.8841 20.0744 59.8623C20.1795 59.8386 20.2772 59.8009 20.3672 59.7514C20.4573 59.7018 20.5651 59.6205 20.686 59.5096C20.8087 59.4006 20.9321 59.26 21.0578 59.0915C21.1834 58.9231 21.314 58.721 21.4516 58.4852H22.3069L21.5564 60.5756H15.5694L15.6891 60.1932C15.8692 60.1456 16.0098 60.0822 16.1111 60.0009C16.2124 59.9197 16.3013 59.8048 16.3802 59.6562C16.4614 59.5056 16.5457 59.2917 16.6358 59.0083L18.1762 54.2191C18.2509 53.9913 18.2955 53.7634 18.314 53.5395C18.3274 53.3771 18.2964 53.2582 18.2209 53.1829C18.1455 53.1076 18.0163 53.0581 17.8335 53.0342L17.9531 52.6518H24.0669ZM30.2964 59.0083C30.2645 59.1093 30.2408 59.1886 30.2275 59.2461C30.2141 59.3035 30.2024 59.3669 30.1904 59.4342C30.1785 59.5016 30.1669 59.5869 30.1588 59.6879C30.1452 59.8504 30.1762 59.9693 30.2516 60.0446C30.3294 60.1198 30.4586 60.1694 30.6393 60.1932L30.5196 60.5756H27.3542L27.4739 60.1932C27.654 60.1456 27.7945 60.0822 27.8959 60.0009C27.9971 59.9197 28.0861 59.8048 28.167 59.6562C28.2461 59.5056 28.3303 59.2917 28.4205 59.0083L29.1318 56.791H26.463L25.7514 59.0083C25.7171 59.1133 25.6954 59.1925 25.6821 59.25C25.669 59.3055 25.6552 59.3669 25.6432 59.4342C25.6335 59.5016 25.622 59.5869 25.6138 59.6879C25.6003 59.8504 25.6312 59.9693 25.7067 60.0446C25.7821 60.1198 25.9114 60.1694 26.0941 60.1932L25.9746 60.5756H22.8093L22.9288 60.1932C23.109 60.1456 23.2495 60.0822 23.3507 60.0009C23.4519 59.9197 23.5412 59.8048 23.62 59.6562C23.7011 59.5056 23.7854 59.2917 23.8755 59.0083L25.416 54.2191C25.4907 53.9913 25.5352 53.7634 25.5538 53.5395C25.5671 53.3771 25.5361 53.2582 25.4607 53.1829C25.3852 53.1076 25.256 53.0581 25.0733 53.0342L25.1928 52.6518H28.3604L28.2409 53.0342C28.0606 53.0818 27.9201 53.1453 27.8187 53.2265C27.7175 53.3076 27.6264 53.4227 27.5476 53.5713C27.4683 53.7218 27.384 53.9358 27.2921 54.2191L26.6995 56.06H29.3686L29.9632 54.2191C30.0357 53.9913 30.0824 53.7634 30.1007 53.5395C30.1143 53.3771 30.0831 53.2582 30.0056 53.1829C29.9302 53.1076 29.801 53.0581 29.6182 53.0342L29.74 52.6518H32.9053L32.7858 53.0342C32.6056 53.0818 32.4648 53.1453 32.3636 53.2265C32.2624 53.3076 32.1734 53.4227 32.0925 53.5713C32.0135 53.7218 31.929 53.9358 31.8391 54.2191L30.2964 59.0083ZM40.9143 52.6518L40.2447 54.7522H39.4387C39.4699 54.3242 39.4667 54.023 39.4317 53.8506C39.3942 53.6782 39.3253 53.5494 39.2209 53.4622C39.1163 53.375 38.9629 53.3315 38.763 53.3315H38.2023L36.3802 59.0083C36.3456 59.1133 36.3219 59.1925 36.3106 59.25C36.2975 59.3055 36.2837 59.3669 36.2718 59.4342C36.2598 59.5016 36.2505 59.5869 36.2422 59.6879C36.2275 59.8663 36.2666 59.9911 36.3596 60.0644C36.4522 60.1377 36.6011 60.1813 36.8108 60.1932L36.6913 60.5756H33.3474L33.4672 60.1932C33.654 60.1694 33.8062 60.1198 33.9203 60.0407C34.0362 59.9633 34.1381 59.8484 34.2239 59.6958C34.3093 59.5432 34.4035 59.3135 34.5041 59.0083L36.3262 53.3315H35.8213C35.658 53.3315 35.5236 53.3453 35.4183 53.3711C35.3148 53.3988 35.2215 53.4364 35.1425 53.4841C35.0632 53.5336 34.976 53.6009 34.8806 53.6881C34.7853 53.7753 34.6769 53.8922 34.5569 54.0428C34.4394 54.1915 34.3073 54.3876 34.1668 54.6312H33.3416L33.9777 52.6518H40.9143ZM41.8028 57.9799H38.9706L39.3612 56.7613H42.1936L41.8028 57.9799ZM49.9823 59.1193C49.919 59.3114 49.8818 59.4779 49.87 59.6186C49.8452 59.9197 50.0076 60.1119 50.3577 60.1932L50.2403 60.5756H47.0855L47.2053 60.1932C47.4702 60.1337 47.6539 60.0425 47.7589 59.9158C47.8638 59.7909 47.9824 59.5254 48.1127 59.1193L48.8071 56.9535C49.0152 56.3077 49.2 55.7865 49.3572 55.3922H49.3206L45.2546 59.1193C45.192 59.3035 45.1552 59.464 45.1439 59.6008C45.1136 59.9673 45.2799 60.1654 45.6429 60.1932L45.5232 60.5756H42.3515L42.4712 60.1932C42.7536 60.1297 42.9497 60.0189 43.0617 59.8583C43.174 59.6978 43.2802 59.4522 43.3827 59.1193L44.9991 54.1141C45.0657 53.9061 45.1062 53.7297 45.1179 53.5871C45.1468 53.2383 44.9772 53.0541 44.6092 53.0342L44.7352 52.6518H47.9092L47.7831 53.0342C47.5391 53.0997 47.3568 53.2007 47.238 53.3374C47.1194 53.4722 46.9967 53.7337 46.8682 54.1201L46.0674 56.587C45.8914 57.1299 45.757 57.5104 45.6637 57.7303H45.7023L49.7702 53.9814C49.8246 53.815 49.8576 53.6762 49.8669 53.5633C49.8913 53.2681 49.7166 53.0937 49.3432 53.0342L49.4693 52.6518H52.6238L52.498 53.0342C52.2901 53.0779 52.1223 53.1571 52.0007 53.276C51.8772 53.3929 51.7421 53.6762 51.5959 54.1201L49.9823 59.1193ZM58.9245 59.0083C58.8924 59.1093 58.8687 59.1886 58.8553 59.2461C58.8422 59.3035 58.8305 59.3669 58.8183 59.4342C58.8063 59.5016 58.795 59.5869 58.7867 59.6879C58.7733 59.8504 58.8043 59.9693 58.8797 60.0446C58.9574 60.1198 59.0864 60.1694 59.2672 60.1932L59.1474 60.5756H55.9821L56.102 60.1932C56.2818 60.1456 56.4226 60.0822 56.5238 60.0009C56.625 59.9197 56.714 59.8048 56.7951 59.6562C56.8742 59.5056 56.9584 59.2917 57.0486 59.0083L57.7599 56.791H55.0911L54.3795 59.0083C54.3452 59.1133 54.3235 59.1925 54.3102 59.25C54.2968 59.3055 54.2833 59.3669 54.2713 59.4342C54.2614 59.5016 54.2501 59.5869 54.2417 59.6879C54.2284 59.8504 54.2593 59.9693 54.3348 60.0446C54.4102 60.1198 54.5394 60.1694 54.7222 60.1932L54.6027 60.5756H51.4371L51.5568 60.1932C51.7369 60.1456 51.8776 60.0822 51.9788 60.0009C52.08 59.9197 52.169 59.8048 52.2479 59.6562C52.3292 59.5056 52.4135 59.2917 52.5034 59.0083L54.044 54.2191C54.1186 53.9913 54.1633 53.7634 54.1818 53.5395C54.1952 53.3771 54.164 53.2582 54.0885 53.1829C54.0133 53.1076 53.8841 53.0581 53.7011 53.0342L53.8208 52.6518H56.9885L56.8687 53.0342C56.6887 53.0818 56.548 53.1453 56.4467 53.2265C56.3455 53.3076 56.2543 53.4227 56.1754 53.5713C56.0964 53.7218 56.0121 53.9358 55.9199 54.2191L55.3276 56.06H57.9967L58.591 54.2191C58.6635 53.9913 58.7103 53.7634 58.7288 53.5395C58.7422 53.3771 58.7112 53.2582 58.6337 53.1829C58.5583 53.1076 58.4291 53.0581 58.2461 53.0342L58.3681 52.6518H61.5334L61.4137 53.0342C61.2336 53.0818 61.0929 53.1453 60.9917 53.2265C60.8905 53.3076 60.8015 53.4227 60.7204 53.5713C60.6413 53.7218 60.5571 53.9358 60.4672 54.2191L58.9245 59.0083ZM69.5424 52.6518L68.8726 54.7522H68.0668C68.0977 54.3242 68.0948 54.023 68.0596 53.8506C68.0223 53.6782 67.9534 53.5494 67.8488 53.4622C67.7442 53.375 67.5908 53.3315 67.3911 53.3315H66.8304L65.008 59.0083C64.9735 59.1133 64.95 59.1925 64.9387 59.25C64.9256 59.3055 64.9118 59.3669 64.8998 59.4342C64.8879 59.5016 64.8786 59.5869 64.8702 59.6879C64.8556 59.8663 64.8946 59.9911 64.9875 60.0644C65.0803 60.1377 65.2292 60.1813 65.4388 60.1932L65.3191 60.5756H61.9755L62.0952 60.1932C62.2818 60.1694 62.4343 60.1198 62.5482 60.0407C62.6643 59.9633 62.7662 59.8484 62.8518 59.6958C62.9374 59.5432 63.0316 59.3135 63.1319 59.0083L64.9543 53.3315H64.4492C64.2858 53.3315 64.1516 53.3453 64.0464 53.3711C63.9429 53.3988 63.8496 53.4364 63.7705 53.4841C63.6913 53.5336 63.6041 53.6009 63.5087 53.6881C63.4134 53.7753 63.305 53.8922 63.185 54.0428C63.0675 54.1915 62.9352 54.3876 62.7946 54.6312H61.9694L62.6056 52.6518H69.5424ZM76.6125 52.6518L76.0114 54.5204H75.2053C75.2141 54.1537 75.1988 53.8962 75.1552 53.7496C75.1136 53.6009 75.0384 53.496 74.93 53.4306C74.8217 53.3632 74.6652 53.3315 74.4589 53.3315H72.8794L71.9835 56.1174H72.858C73.0258 56.1174 73.1697 56.0917 73.2876 56.0421C73.408 55.9905 73.5221 55.9074 73.6308 55.7884C73.7394 55.6716 73.8497 55.507 73.9635 55.2991H74.6555L73.8571 57.655H73.2083C73.2266 57.431 73.2282 57.2587 73.2079 57.1398C73.1878 57.019 73.1412 56.9318 73.066 56.8782C72.991 56.8227 72.8557 56.7969 72.6623 56.7969H71.7684L70.7713 59.896H72.1875C72.3723 59.896 72.5173 59.8841 72.6199 59.8623C72.7251 59.8386 72.8227 59.8009 72.9129 59.7514C73.0028 59.7018 73.1105 59.6205 73.2314 59.5096C73.3543 59.4006 73.4776 59.26 73.6034 59.0915C73.7291 58.9231 73.8596 58.721 73.9972 58.4852H74.8525L74.102 60.5756H68.1149L68.2346 60.1932C68.4149 60.1456 68.5554 60.0822 68.6566 60.0009C68.7578 59.9197 68.8471 59.8048 68.9259 59.6562C69.007 59.5056 69.0913 59.2917 69.1814 59.0083L70.7218 54.2191C70.7966 53.9913 70.8411 53.7634 70.8594 53.5395C70.873 53.3771 70.842 53.2582 70.7663 53.1829C70.6911 53.1076 70.5619 53.0581 70.3791 53.0342L70.4986 52.6518H76.6125ZM80.88 52.6518C81.3208 52.6518 81.6549 52.6637 81.8851 52.6875C82.1966 52.7132 82.4797 52.7727 82.7302 52.8639C82.9805 52.955 83.1876 53.0739 83.3514 53.2245C83.5154 53.3731 83.6361 53.5534 83.7111 53.7634C83.7861 53.9735 83.8111 54.2152 83.7888 54.4866C83.7531 54.9205 83.6352 55.307 83.4307 55.6498C83.2283 55.9925 82.959 56.2878 82.6184 56.5355C82.28 56.7832 81.8584 56.9694 81.3538 57.0963C80.8513 57.2211 80.2938 57.2844 79.6857 57.2844H79.5032C79.2472 57.2844 79.0353 57.2745 78.8629 57.2547L78.297 59.0083C78.2589 59.1311 78.2286 59.2401 78.208 59.3312C78.1877 59.4204 78.1714 59.5413 78.1593 59.6879C78.1446 59.8663 78.1836 59.9911 78.2765 60.0644C78.3693 60.1377 78.5205 60.1813 78.7278 60.1932L78.6083 60.5756H75.3547L75.4744 60.1932C75.6547 60.1456 75.7952 60.0822 75.8964 60.0009C75.9976 59.9197 76.0866 59.8048 76.1654 59.6562C76.2468 59.5056 76.331 59.2917 76.4209 59.0083L77.9616 54.2191C78.0361 53.9913 78.0809 53.7634 78.0994 53.5395C78.1127 53.3771 78.0818 53.2582 78.0061 53.1829C77.9309 53.1076 77.8016 53.0581 77.6189 53.0342L77.7384 52.6518H80.88ZM79.4017 56.6107C79.8251 56.6107 80.1768 56.5672 80.4571 56.478C80.7373 56.3888 80.9767 56.2481 81.1748 56.06C81.3732 55.8697 81.5318 55.6398 81.6486 55.3704C81.7653 55.1029 81.8365 54.8116 81.8623 54.4986C81.8948 54.1062 81.8178 53.815 81.6339 53.6208C81.4522 53.4286 81.1507 53.3315 80.7296 53.3315C80.4953 53.3315 80.2909 53.3355 80.1183 53.3434L79.0751 56.6107H79.4017ZM89.1336 60.5756H85.8802L85.9999 60.1932C86.2613 60.1258 86.4508 60.0149 86.5714 59.8563C86.6919 59.6978 86.8025 59.4501 86.9076 59.1133L88.5214 54.1141C88.5881 53.9061 88.6281 53.7318 88.6396 53.593C88.6683 53.2443 88.5034 53.0581 88.1442 53.0342L88.2702 52.6518H94.1885L93.4789 54.8453H92.7418C92.8093 54.235 92.7845 53.8327 92.6652 53.6386C92.548 53.4444 92.2936 53.3492 91.9023 53.3492H90.6431L88.7767 59.1193C88.7139 59.3075 88.6769 59.472 88.6651 59.6126C88.6355 59.9713 88.8323 60.1654 89.2534 60.1932L89.1336 60.5756ZM98.224 52.6518C98.6647 52.6518 98.9989 52.6637 99.2291 52.6875C99.5408 52.7132 99.8236 52.7727 100.074 52.8639C100.324 52.955 100.532 53.0739 100.695 53.2245C100.859 53.3731 100.98 53.5534 101.055 53.7634C101.13 53.9735 101.155 54.2152 101.133 54.4866C101.097 54.9205 100.979 55.307 100.775 55.6498C100.572 55.9925 100.303 56.2878 99.9623 56.5355C99.6239 56.7832 99.2024 56.9694 98.6977 57.0963C98.1953 57.2211 97.6378 57.2844 97.0297 57.2844H96.8469C96.5912 57.2844 96.3793 57.2745 96.2069 57.2547L95.641 59.0083C95.6028 59.1311 95.5726 59.2401 95.552 59.3312C95.5319 59.4204 95.5154 59.5413 95.5032 59.6879C95.4885 59.8663 95.5276 59.9911 95.6205 60.0644C95.7133 60.1377 95.8644 60.1813 96.0718 60.1932L95.9523 60.5756H92.6986L92.8184 60.1932C92.9984 60.1456 93.1391 60.0822 93.2403 60.0009C93.3416 59.9197 93.4306 59.8048 93.5096 59.6562C93.5907 59.5056 93.675 59.2917 93.7649 59.0083L95.3056 54.2191C95.3801 53.9913 95.4248 53.7634 95.4434 53.5395C95.4567 53.3771 95.4257 53.2582 95.3503 53.1829C95.2748 53.1076 95.1456 53.0581 94.9629 53.0342L95.0824 52.6518H98.224ZM96.7457 56.6107C97.169 56.6107 97.5208 56.5672 97.8009 56.478C98.0812 56.3888 98.3207 56.2481 98.5188 56.06C98.7172 55.8697 98.876 55.6398 98.9925 55.3704C99.1093 55.1029 99.1805 54.8116 99.2065 54.4986C99.2388 54.1062 99.162 53.815 98.9781 53.6208C98.7962 53.4286 98.4949 53.3315 98.0736 53.3315C97.8393 53.3315 97.6349 53.3355 97.4623 53.3434L96.419 56.6107H96.7457ZM104.246 58.5031C103.576 59.3312 103.019 59.9079 102.574 60.2309C102.128 60.5538 101.627 60.7144 101.072 60.7144C100.679 60.7144 100.283 60.6688 99.8889 60.5756L100.421 58.9211H101.22C101.18 59.4165 101.339 59.6642 101.701 59.6642C101.898 59.6642 102.098 59.5928 102.3 59.4501C102.504 59.3055 102.795 59.0063 103.179 58.5506L102.529 54.2073C102.47 53.805 102.395 53.5138 102.305 53.3315C102.215 53.1492 102.061 53.0501 101.846 53.0342L101.972 52.6518H105.049L104.923 53.0342C104.56 53.062 104.365 53.2304 104.34 53.5395C104.328 53.6822 104.352 53.9675 104.409 54.3935L104.721 56.7038L106.451 54.445C106.821 53.9615 107.015 53.6188 107.032 53.4187C107.051 53.1789 106.918 53.0501 106.629 53.0342L106.755 52.6518H109.235L109.109 53.0342C108.88 53.0779 108.662 53.1947 108.455 53.387C108.248 53.5772 107.951 53.914 107.562 54.3935L104.246 58.5031ZM117.325 53.0342C117.099 53.0857 116.922 53.1769 116.793 53.3076C116.664 53.4385 116.534 53.7099 116.399 54.1201L114.783 59.1193C114.717 59.3273 114.676 59.5037 114.664 59.6463C114.638 59.9633 114.804 60.1456 115.161 60.1932L115.041 60.5756H111.886L112.006 60.1932C112.246 60.1258 112.425 60.0347 112.539 59.9137C112.654 59.793 112.779 59.5294 112.913 59.1193L114.766 53.383H112.209L110.358 59.1193C110.295 59.3114 110.258 59.4758 110.247 59.6126C110.218 59.9633 110.385 60.1575 110.747 60.1932L110.627 60.5756H107.455L107.575 60.1932C107.832 60.1297 108.021 60.0227 108.143 59.8702C108.263 59.7176 108.379 59.466 108.487 59.1193L110.103 54.1141C110.17 53.9061 110.21 53.7337 110.221 53.5969C110.25 53.2463 110.085 53.0581 109.726 53.0342L109.852 52.6518H117.451L117.325 53.0342ZM126.133 53.0342C125.907 53.0857 125.73 53.1769 125.601 53.3076C125.472 53.4385 125.342 53.7099 125.208 54.1201L123.592 59.1193C123.525 59.3273 123.485 59.5037 123.473 59.6463C123.447 59.9633 123.612 60.1456 123.969 60.1932L123.85 60.5756H120.695L120.815 60.1932C121.054 60.1258 121.234 60.0347 121.347 59.9137C121.462 59.793 121.587 59.5294 121.722 59.1193L123.575 53.383H121.018L119.167 59.1193C119.104 59.3114 119.067 59.4758 119.055 59.6126C119.026 59.9633 119.193 60.1575 119.555 60.1932L119.436 60.5756H116.264L116.384 60.1932C116.64 60.1297 116.829 60.0227 116.952 59.8702C117.072 59.7176 117.187 59.466 117.295 59.1193L118.912 54.1141C118.978 53.9061 119.018 53.7337 119.03 53.5969C119.058 53.2463 118.893 53.0581 118.534 53.0342L118.66 52.6518H126.259L126.133 53.0342Z" fill="currentColor"/>
        <path d="M40.9003 12.8822C45.5268 12.8822 49.8427 14.5717 52.8745 17.6069C55.9064 20.642 57.9714 25.5261 57.9714 30.1581C57.9714 34.7901 55.7803 38.984 52.7487 42.0192C49.7169 45.0542 45.5268 47.2458 40.9003 47.2458C36.2736 47.2458 31.8334 45.368 28.8016 42.333C25.7697 39.2979 23.7059 34.7899 23.7059 30.1581C23.7059 25.5261 25.7074 20.9559 28.7392 17.9208C31.7709 14.8856 36.2736 12.8822 40.9003 12.8822ZM52.3794 18.6671C49.4422 15.7265 45.3831 13.9071 40.9003 13.9071C36.4179 13.9071 32.3589 15.7265 29.4217 18.6671C26.4845 21.6074 24.6671 25.6707 24.6671 30.1581C24.6671 34.6454 26.4845 38.709 29.4217 41.6495C32.3589 44.5899 36.4179 46.4092 40.9003 46.4092C45.3831 46.4092 49.4422 44.5899 52.3794 41.6495C55.3166 38.709 57.134 34.6456 57.134 30.1581C57.134 25.6707 55.3166 21.6074 52.3794 18.6671Z" fill="currentColor"/>
        <path d="M46.4937 45.6745C48.0703 45.2496 50.384 43.7684 52.5565 42.0615C55.0945 40.067 57.4256 37.7761 58.1643 36.5009C61.4227 30.8761 60.3172 27.2189 58.2416 23.6722C54.9219 17.9997 49.1566 11.9832 41.8672 11.921C34.1372 11.8552 27.2618 14.8831 24.152 22.1604C22.436 26.1759 22.7399 31.939 24.2973 35.9568C25.7846 39.7941 28.2743 42.4713 31.1557 44.1943C34.041 45.92 37.3222 46.6923 40.387 46.7187C42.6056 46.7375 44.7099 46.3663 46.4672 45.6836L46.4937 45.6745ZM48.8467 45.2151C52.5452 44.7635 55.8703 45.1389 57.9956 45.7589C59.1314 46.0902 59.5064 46.4045 60.0149 46.3205C61.4943 46.0763 61.5197 44.3554 62.2999 44.2809C64.3717 44.0832 66.6138 46.6874 67.6209 44.7471C69.2767 41.5572 64.3712 41.4147 63.4091 38.9892C62.5403 36.7985 63.4762 33.1243 65.2606 31.6674C67.6927 29.6816 69.94 32.3703 70.8334 31.5926C71.6438 30.8874 68.9523 29.5412 69.9307 29.0197C70.3516 28.7953 70.5276 29.8472 71.3065 30.3266C73.1609 31.4682 74.3835 29.5538 74.2026 27.7195C74.0184 25.8543 72.6434 23.427 70.8029 21.7485C69.6088 20.6596 68.1743 20.0583 66.9542 19.9068C64.9157 19.6537 62.4917 20.1248 59.5204 22.9562C62.0022 26.9934 62.5432 29.9815 58.615 36.7623C57.8458 38.0907 55.4618 40.442 52.8788 42.472C51.5268 43.5341 50.1158 44.512 48.8467 45.2151ZM58.9649 22.235C60.3382 20.955 62.3033 19.8584 64.3543 19.4152C66.6149 18.9271 68.5828 19.3964 70.4182 20.6748C72.7484 22.2974 74.7007 25.1134 74.9571 27.7112C75.0892 29.0513 74.8703 30.8241 73.6816 31.3004C73.1758 31.503 72.1597 31.2773 71.4655 30.9994C71.7142 31.6136 71.7402 32.0777 71.4517 32.2663C70.1767 33.0983 68.5075 30.4338 66.0075 32.475C64.3992 33.7878 63.1904 36.8745 63.9727 38.8476C65.086 41.6552 70.256 41.3226 68.3092 45.0726C67.1087 47.3847 64.9132 45.8412 62.8283 46.064C62.3196 46.1182 61.8696 46.4374 61.3816 46.7587C61.0134 47.0009 60.6743 47.2239 60.3032 47.2853C59.6799 47.3883 58.7447 47.3465 57.5442 46.9965C55.0419 46.2664 51.1615 45.242 46.575 46.6275C44.7154 47.1891 42.3741 47.5863 40.0968 47.5672C36.9463 47.5408 33.5209 46.9374 30.5519 45.1617C27.5781 43.3832 24.9081 40.2262 23.3742 36.2695C21.7755 32.1455 21.3793 26.056 23.0218 21.8872C26.0973 14.0819 33.9829 10.729 41.8715 10.7957C51.2887 10.8758 55.9378 17.0073 58.9649 22.235Z" fill="currentColor"/>
        <path fill-rule="evenodd" clip-rule="evenodd" d="M35.2556 15.9162C40.76 16.5482 40.7731 22.9001 40.5763 26.9925C40.866 26.9633 41.1456 26.98 41.416 27.039C43.0891 23.4415 44.0688 19.1833 44.322 15.7214C44.3675 15.0966 44.1865 14.4756 44.9049 14.4091C47.5936 14.161 55.3836 19.0395 55.0035 24.2047C54.5864 29.8677 47.9516 30.0174 43.8761 29.9742C43.9208 30.2725 43.9193 30.5593 43.8741 30.8347C43.8894 30.849 43.9057 30.8621 43.9245 30.8732C47.388 32.8961 51.6099 34.2686 55.0807 34.826C55.6988 34.9251 56.3322 34.7975 56.3367 35.5198C56.353 38.223 50.829 45.574 45.7211 44.7512C40.2526 43.8703 40.5253 37.528 40.9068 33.4483C40.6644 33.4592 40.4291 33.4377 40.2004 33.3857C38.5053 36.9728 37.5 41.226 37.2257 44.6866C37.1767 45.3113 37.3541 45.9333 36.6352 45.9953C33.9449 46.2272 26.184 41.3022 26.5954 36.1393C27.0465 30.4767 33.6856 30.3691 37.7609 30.4369C37.7263 30.1977 37.7205 29.9674 37.7422 29.7451C37.7236 29.7264 37.7024 29.7108 37.6782 29.6981C34.1266 27.8344 29.847 26.6548 26.3546 26.2554C25.7327 26.1844 25.1056 26.3402 25.0685 25.6193C24.93 22.9198 30.1156 15.3257 35.2556 15.9162Z" fill="currentColor"/>
        <path d="M24.4059 29.8124H57.3949V30.5044H24.4059V29.8124Z" fill="currentColor"/>
        <path fill-rule="evenodd" clip-rule="evenodd" d="M69.469 22.829C70.0665 22.829 70.8373 23.4039 70.7955 24.5125C70.7539 25.6208 70.1455 26.4614 69.548 26.4614C68.5705 26.4614 68.3313 25.2398 68.3584 24.4274C68.3634 24.2764 69.5645 25.6771 69.7283 24.4141C69.8485 23.4883 69.1272 23.334 68.5315 23.7712C68.6241 23.3777 69.0994 22.829 69.469 22.829Z" fill="currentColor"/>
        <path d="M65.0557 14.5155C65.3898 15.009 64.6466 16.2345 64.3997 16.5651C63.8923 17.2447 63.5035 18.1199 63.4913 18.4184C63.4697 18.9431 63.6285 19.2739 64.0764 19.6452C63.7448 19.9503 62.6413 20.1392 62.1084 20.4521C62.1531 19.9564 62.7366 18.7784 62.8735 18.2918C62.9711 17.9446 62.8541 16.7191 63.2243 15.9541C63.4979 15.3894 64.7218 14.0221 65.0557 14.5155Z" fill="currentColor"/>
        <path d="M69.0095 14.6039C69.2912 15.258 67.0405 16.4708 66.6594 17.618C66.4938 18.116 66.6524 18.8917 67.0231 19.3404C66.4943 19.2493 65.6794 19.1855 65.0975 19.3933C65.2339 18.9148 66.1312 17.8417 66.3567 17.3896C66.5175 17.0669 66.6655 15.7123 67.1724 15.0302C67.547 14.5264 68.7276 13.9499 69.0095 14.6039Z" fill="currentColor"/>
        <path fill-rule="evenodd" clip-rule="evenodd" d="M21.8173 1.64604H84.9108L95.5658 34.7646L104.353 7.76765H140.007L138.241 13.1925H108.325L98.4097 43.5894H92.7813L80.941 7.5657H19.4776L21.8173 1.64604Z" fill="currentColor"/>
        <path d="M116.768 14.0822L115.996 16.4846H114.96C114.971 16.0133 114.951 15.6822 114.895 15.4936C114.842 15.3025 114.745 15.1675 114.605 15.0836C114.466 14.9968 114.265 14.9561 114 14.9561H111.969L110.817 18.5378H111.942C112.157 18.5378 112.342 18.5046 112.494 18.441C112.649 18.3747 112.796 18.2678 112.935 18.1149C113.075 17.9645 113.217 17.7531 113.363 17.4858H114.253L113.226 20.5146H112.392C112.416 20.2267 112.417 20.005 112.391 19.8524C112.366 19.6968 112.306 19.5849 112.209 19.5161C112.113 19.4447 111.939 19.4116 111.69 19.4116H110.541L109.259 23.3959H111.08C111.317 23.3959 111.504 23.3805 111.636 23.3525C111.771 23.322 111.896 23.2733 112.012 23.2098C112.128 23.146 112.266 23.0415 112.422 22.8991C112.58 22.7589 112.738 22.5779 112.9 22.3615C113.061 22.1449 113.229 21.885 113.406 21.582H114.506L113.541 24.2695H105.844L105.998 23.7779C106.229 23.7168 106.41 23.6352 106.54 23.5307C106.671 23.4264 106.785 23.2785 106.886 23.0875C106.991 22.8939 107.099 22.6189 107.215 22.2545L109.195 16.0972C109.291 15.8046 109.349 15.5115 109.372 15.2236C109.39 15.0146 109.35 14.862 109.253 14.765C109.156 14.6682 108.99 14.6046 108.755 14.5741L108.909 14.0822H116.768ZM118.208 14.0822H121.286L122.498 18.306C122.829 19.4548 123.082 20.4714 123.258 21.3502H123.363C123.591 20.4917 123.874 19.539 124.215 18.4919L124.979 16.0972C125.072 15.7994 125.133 15.509 125.156 15.2236C125.173 15.0146 125.133 14.862 125.036 14.765C124.939 14.6682 124.773 14.6046 124.538 14.5741L124.692 14.0822H127.67L127.516 14.5741C127.285 14.6352 127.104 14.7166 126.974 14.8211C126.844 14.9255 126.729 15.0734 126.625 15.2643C126.523 15.4579 126.415 15.7331 126.3 16.0972L123.675 24.2695H121.829L120.315 19.0525C120.199 18.6448 120.095 18.2626 120.006 17.9062C119.916 17.5518 119.81 17.1011 119.689 16.5533L119.568 16.5457C119.497 16.8795 119.376 17.3379 119.206 17.9213C119.036 18.5073 118.84 19.1389 118.618 19.8216L117.835 22.2545C117.791 22.3844 117.76 22.4863 117.743 22.5603C117.726 22.634 117.711 22.7157 117.696 22.8023C117.68 22.8889 117.668 22.9983 117.658 23.1282C117.64 23.3371 117.68 23.49 117.777 23.5868C117.874 23.6836 118.04 23.7474 118.275 23.7779L118.122 24.2695H115.143L115.297 23.7779C115.529 23.7168 115.709 23.6352 115.84 23.5307C115.97 23.4264 116.084 23.2785 116.186 23.0875C116.29 22.8939 116.398 22.6189 116.514 22.2545L118.495 16.0972C118.591 15.8046 118.648 15.5115 118.672 15.2236C118.689 15.0146 118.649 14.862 118.552 14.765C118.455 14.6682 118.289 14.6046 118.054 14.5741L118.208 14.0822ZM137.942 14.0822L137.081 16.7827H136.045C136.085 16.2324 136.081 15.8453 136.036 15.6237C135.988 15.4018 135.899 15.2363 135.765 15.1243C135.63 15.0121 135.433 14.9561 135.176 14.9561H134.455L132.113 22.2545C132.068 22.3896 132.038 22.4916 132.023 22.5653C132.007 22.6365 131.989 22.7157 131.974 22.8023C131.958 22.8889 131.946 22.9983 131.936 23.1282C131.917 23.3575 131.967 23.518 132.086 23.6123C132.206 23.7066 132.397 23.7625 132.667 23.7779L132.513 24.2695H128.214L128.368 23.7779C128.608 23.7474 128.804 23.6836 128.95 23.5818C129.099 23.4823 129.23 23.3346 129.34 23.1386C129.451 22.9423 129.572 22.6469 129.701 22.2545L132.044 14.9561H131.394C131.184 14.9561 131.012 14.9739 130.876 15.0069C130.743 15.0427 130.623 15.0911 130.522 15.1524C130.42 15.2159 130.308 15.3025 130.185 15.4147C130.062 15.5266 129.923 15.677 129.769 15.8706C129.618 16.0617 129.448 16.3139 129.267 16.6273H128.206L129.024 14.0822H137.942Z" fill="currentColor"/>
        <path d="M105.473 34.2841H102.949L103.044 33.9788C103.188 33.941 103.3 33.8904 103.38 33.8254C103.461 33.7608 103.532 33.669 103.595 33.5505C103.66 33.4304 103.727 33.2596 103.799 33.0337L105.028 29.2132C105.088 29.0313 105.123 28.8497 105.138 28.6711C105.148 28.5415 105.124 28.4465 105.063 28.3864C105.003 28.3264 104.9 28.2868 104.754 28.2681L104.85 27.9628H107.377L107.281 28.2681C107.138 28.3058 107.025 28.3565 106.945 28.4212C106.864 28.4861 106.791 28.5777 106.728 28.6964C106.665 28.8165 106.598 28.9872 106.525 29.2132L105.296 33.0337C105.268 33.1142 105.251 33.1775 105.24 33.2234C105.23 33.2691 105.219 33.3198 105.209 33.3734C105.201 33.4272 105.192 33.4953 105.186 33.5758C105.175 33.7054 105.2 33.8003 105.26 33.8605C105.32 33.9204 105.423 33.9598 105.569 33.9788L105.473 34.2841ZM108.356 27.9628H110.266L111.018 30.5836C111.223 31.2964 111.38 31.9272 111.49 32.4726H111.555C111.696 31.9398 111.872 31.3487 112.083 30.6989L112.557 29.2132C112.615 29.0282 112.652 28.8479 112.667 28.6711C112.678 28.5415 112.653 28.4465 112.593 28.3864C112.533 28.3264 112.43 28.2868 112.284 28.2681L112.379 27.9628H114.227L114.132 28.2681C113.988 28.3058 113.876 28.3565 113.795 28.4212C113.714 28.4861 113.643 28.5777 113.579 28.6964C113.516 28.8165 113.448 28.9872 113.376 29.2132L111.748 34.2841H110.603L109.663 31.0468C109.591 30.7937 109.527 30.5567 109.471 30.3355C109.416 30.1157 109.35 29.836 109.275 29.4961L109.2 29.4913C109.155 29.6985 109.08 29.983 108.975 30.345C108.87 30.7084 108.748 31.1006 108.61 31.5242L108.124 33.0337C108.097 33.1142 108.078 33.1775 108.068 33.2234C108.057 33.2691 108.047 33.3198 108.038 33.3734C108.028 33.4272 108.021 33.4953 108.014 33.5758C108.004 33.7054 108.028 33.8003 108.089 33.8605C108.149 33.9204 108.252 33.9598 108.398 33.9788L108.302 34.2841H106.454L106.55 33.9788C106.693 33.941 106.806 33.8904 106.886 33.8254C106.967 33.7608 107.038 33.669 107.101 33.5505C107.166 33.4304 107.233 33.2596 107.305 33.0337L108.534 29.2132C108.593 29.0313 108.629 28.8497 108.644 28.6711C108.654 28.5415 108.63 28.4465 108.569 28.3864C108.509 28.3264 108.406 28.2868 108.26 28.2681L108.356 27.9628ZM120.601 27.9628L120.067 29.6383H119.424C119.449 29.2971 119.446 29.0567 119.418 28.9192C119.388 28.7817 119.333 28.679 119.25 28.6093C119.166 28.5399 119.044 28.5051 118.885 28.5051H118.437L116.984 33.0337C116.956 33.1174 116.937 33.1807 116.928 33.2264C116.918 33.2709 116.907 33.3198 116.897 33.3734C116.888 33.4272 116.88 33.4953 116.874 33.5758C116.862 33.718 116.893 33.8175 116.967 33.8761C117.041 33.9347 117.16 33.9695 117.327 33.9788L117.232 34.2841H114.565L114.66 33.9788C114.809 33.9598 114.93 33.9204 115.021 33.8571C115.114 33.7956 115.195 33.7038 115.263 33.5821C115.332 33.4604 115.407 33.277 115.487 33.0337L116.941 28.5051H116.538C116.408 28.5051 116.3 28.5162 116.216 28.5367C116.134 28.5589 116.06 28.5888 115.996 28.6267C115.933 28.6663 115.863 28.7199 115.788 28.7896C115.711 28.859 115.625 28.9524 115.529 29.0725C115.436 29.191 115.33 29.3475 115.218 29.542H114.56L115.067 27.9628H120.601ZM126.241 27.9628L125.761 29.4533H125.119C125.126 29.1609 125.113 28.9556 125.078 28.8387C125.045 28.7199 124.985 28.6362 124.899 28.584C124.812 28.5304 124.687 28.5051 124.523 28.5051H123.263L122.548 30.7274H123.246C123.38 30.7274 123.494 30.7069 123.589 30.6673C123.685 30.6264 123.776 30.5599 123.862 30.4649C123.949 30.3717 124.037 30.2405 124.128 30.0746H124.68L124.043 31.9541H123.525C123.54 31.7754 123.541 31.6379 123.525 31.5432C123.509 31.4468 123.472 31.3772 123.412 31.3344C123.352 31.2901 123.244 31.2695 123.09 31.2695H122.376L121.581 33.7418H122.711C122.858 33.7418 122.974 33.7323 123.056 33.7149C123.14 33.6959 123.218 33.666 123.29 33.6264C123.361 33.5869 123.447 33.522 123.544 33.4335C123.642 33.3467 123.74 33.2343 123.841 33.1C123.941 32.9656 124.045 32.8044 124.155 32.6162H124.837L124.238 34.2841H119.462L119.558 33.9788C119.701 33.941 119.814 33.8904 119.894 33.8254C119.975 33.7608 120.046 33.669 120.109 33.5505C120.174 33.4304 120.241 33.2596 120.313 33.0337L121.542 29.2132C121.601 29.0313 121.637 28.8497 121.652 28.6711C121.662 28.5415 121.638 28.4465 121.577 28.3864C121.517 28.3264 121.414 28.2868 121.268 28.2681L121.364 27.9628H126.241ZM130 31.3898C130.188 31.5416 130.324 31.687 130.405 31.8277C130.484 31.9683 130.546 32.1723 130.587 32.441L130.68 33.0891C130.713 33.3245 130.751 33.4905 130.791 33.5916C130.83 33.6913 130.891 33.7734 130.966 33.8365C131.043 33.8999 131.152 33.9473 131.294 33.9788L131.198 34.2841H129.405C129.319 33.993 129.25 33.65 129.199 33.2519L129.103 32.4819C129.074 32.2512 129.034 32.0694 128.982 31.9367C128.929 31.8039 128.857 31.7076 128.764 31.649C128.672 31.5904 128.543 31.5606 128.38 31.5606H128.068L127.585 33.0337C127.554 33.1348 127.53 33.2234 127.513 33.2976C127.497 33.372 127.484 33.4636 127.475 33.5758C127.463 33.718 127.494 33.8175 127.568 33.8761C127.642 33.9347 127.763 33.9695 127.929 33.9788L127.833 34.2841H125.238L125.333 33.9788C125.477 33.941 125.589 33.8904 125.67 33.8254C125.75 33.7608 125.822 33.669 125.884 33.5505C125.949 33.4304 126.016 33.2596 126.088 33.0337L127.317 29.2132C127.377 29.0313 127.412 28.8497 127.427 28.6711C127.438 28.5415 127.413 28.4465 127.353 28.3864C127.293 28.3264 127.19 28.2868 127.044 28.2681L127.139 27.9628H129.645C129.983 27.9628 130.25 27.9707 130.444 27.9881C130.64 28.0055 130.824 28.0388 130.999 28.0908C131.174 28.1414 131.322 28.2048 131.445 28.2807C131.567 28.3565 131.671 28.4465 131.754 28.5508C131.837 28.6552 131.898 28.7785 131.936 28.916C131.972 29.0551 131.983 29.2116 131.969 29.3839C131.931 29.8502 131.749 30.2453 131.424 30.5694C131.099 30.8934 130.625 31.1542 129.999 31.3487L130 31.3898ZM128.56 31.0199C128.891 31.0199 129.168 30.9834 129.39 30.9124C129.612 30.8412 129.801 30.7322 129.957 30.5836C130.113 30.435 130.237 30.2627 130.331 30.0653C130.424 29.8676 130.482 29.6446 130.502 29.3981C130.527 29.0994 130.463 28.8748 130.311 28.7263C130.159 28.5793 129.906 28.5051 129.551 28.5051C129.295 28.5051 129.126 28.5082 129.038 28.5146L128.243 31.0199H128.56ZM103.687 41.9665C103.721 41.8635 103.744 41.7776 103.755 41.7089C103.766 41.6403 103.774 41.5788 103.779 41.523C103.788 41.4071 103.767 41.3211 103.714 41.2639C103.662 41.2067 103.565 41.1694 103.427 41.1538L103.514 40.8761H105.733L105.646 41.1538C105.525 41.1895 105.433 41.2338 105.372 41.2854C105.31 41.337 105.253 41.4128 105.199 41.5115C105.145 41.6116 105.081 41.7762 105.008 42.008L104.538 43.4546L103.9 43.5891L103.684 43.2914C103.27 43.4904 102.848 43.5891 102.418 43.5891C101.782 43.5891 101.306 43.4245 100.992 43.094C100.678 42.7649 100.547 42.2884 100.598 41.6645C100.623 41.3598 100.698 41.0149 100.82 40.63C100.943 40.2438 101.098 39.8932 101.285 39.5798C101.471 39.265 101.681 38.9916 101.916 38.7571C102.15 38.5239 102.405 38.3321 102.678 38.179C102.951 38.0273 103.234 37.9142 103.527 37.8414C103.818 37.7697 104.13 37.7326 104.461 37.7326C105.103 37.7326 105.672 37.8127 106.168 37.9714L105.791 39.1705H105.197C105.217 38.9274 105.203 38.7385 105.159 38.6026C105.114 38.4667 105.037 38.3692 104.927 38.3107C104.817 38.2521 104.664 38.2234 104.47 38.2234C104.279 38.2234 104.097 38.2591 103.924 38.3321C103.722 38.4194 103.53 38.551 103.346 38.7299C103.129 38.9402 102.926 39.2121 102.737 39.5484C102.532 39.9118 102.345 40.3367 102.177 40.8261C102.033 41.2567 101.945 41.6603 101.914 42.0381C101.885 42.39 101.925 42.6548 102.036 42.8322C102.148 43.0096 102.331 43.0983 102.586 43.0983C102.738 43.0983 102.868 43.074 102.978 43.0253C103.087 42.9767 103.183 42.9108 103.264 42.8307C103.345 42.7492 103.413 42.6562 103.467 42.5517C103.521 42.4472 103.567 42.3399 103.602 42.2312L103.687 41.9665ZM109.995 40.9019C110.165 41.0394 110.288 41.171 110.361 41.2983C110.433 41.4256 110.489 41.6102 110.526 41.8534L110.61 42.4401C110.641 42.6532 110.675 42.8035 110.711 42.8951C110.747 42.9852 110.801 43.0596 110.869 43.1168C110.939 43.1741 111.038 43.2171 111.166 43.2457L111.079 43.5218H109.456C109.378 43.2586 109.316 42.948 109.269 42.5875L109.183 41.8907C109.156 41.6818 109.12 41.5172 109.073 41.397C109.025 41.2768 108.96 41.1895 108.875 41.1366C108.793 41.0837 108.676 41.0565 108.528 41.0565H108.246L107.808 42.39C107.781 42.4816 107.759 42.5617 107.744 42.629C107.729 42.6962 107.717 42.7792 107.709 42.8808C107.698 43.0096 107.727 43.0997 107.794 43.1526C107.861 43.2056 107.97 43.2371 108.119 43.2457L108.033 43.5218H105.684L105.77 43.2457C105.9 43.2113 106.002 43.1655 106.075 43.1069C106.148 43.0482 106.212 42.9652 106.269 42.8579C106.328 42.7492 106.389 42.5946 106.454 42.39L107.566 38.9317C107.62 38.767 107.652 38.6026 107.666 38.4409C107.675 38.3235 107.653 38.2376 107.598 38.1833C107.544 38.1291 107.451 38.0931 107.319 38.0759L107.405 37.7998H109.674C109.98 37.7998 110.221 37.807 110.397 37.8226C110.574 37.8385 110.74 37.8685 110.899 37.9158C111.057 37.9615 111.192 38.0187 111.303 38.0874C111.413 38.156 111.508 38.2376 111.582 38.3321C111.658 38.4267 111.712 38.5382 111.747 38.6628C111.78 38.7885 111.79 38.9303 111.778 39.0861C111.743 39.5083 111.578 39.8659 111.284 40.1594C110.99 40.4527 110.56 40.6886 109.994 40.8648L109.995 40.9019ZM108.691 40.5672C108.991 40.5672 109.242 40.5341 109.443 40.4697C109.643 40.4055 109.814 40.3066 109.956 40.1723C110.097 40.0377 110.21 39.8817 110.294 39.7028C110.379 39.5239 110.431 39.3222 110.449 39.099C110.472 38.8285 110.414 38.6254 110.276 38.4909C110.138 38.3579 109.909 38.2905 109.588 38.2905C109.357 38.2905 109.203 38.2935 109.124 38.2991L108.404 40.5672H108.691ZM114.014 43.5891C113.324 43.5891 112.816 43.4217 112.492 43.0883C112.168 42.7534 112.032 42.2627 112.085 41.6146C112.104 41.3941 112.149 41.1409 112.221 40.8562C112.294 40.5699 112.4 40.2695 112.542 39.9518C112.683 39.6357 112.866 39.3351 113.093 39.0533C113.32 38.7713 113.578 38.5296 113.87 38.3306C114.159 38.1304 114.477 37.98 114.822 37.8814C115.167 37.7826 115.523 37.7326 115.894 37.7326C116.585 37.7326 117.094 37.8986 117.424 38.2319C117.752 38.5639 117.89 39.0477 117.838 39.6813C117.816 39.9505 117.76 40.2481 117.671 40.5771C117.582 40.9048 117.454 41.2352 117.285 41.5659C117.116 41.8978 116.918 42.1912 116.691 42.4487C116.463 42.7063 116.208 42.9208 115.924 43.0926C115.64 43.2643 115.339 43.3903 115.022 43.4689C114.705 43.549 114.37 43.5891 114.014 43.5891ZM113.422 42.0037C113.39 42.39 113.428 42.669 113.536 42.8407C113.643 43.0124 113.833 43.0983 114.105 43.0983C114.251 43.0983 114.393 43.0683 114.531 43.0068C114.703 42.9309 114.873 42.815 115.038 42.6576C115.242 42.4658 115.434 42.2198 115.617 41.9207C115.798 41.6216 115.956 41.294 116.088 40.9392C116.197 40.6515 116.299 40.3166 116.394 39.9333C116.449 39.7216 116.483 39.5113 116.5 39.305C116.531 38.9303 116.493 38.6569 116.386 38.4839C116.28 38.3091 116.087 38.2234 115.807 38.2234C115.543 38.2234 115.278 38.3321 115.012 38.5481C114.746 38.7643 114.496 39.0705 114.262 39.464C114.028 39.8575 113.836 40.301 113.687 40.7904C113.538 41.2811 113.448 41.686 113.422 42.0037ZM123.105 41.5258C122.986 41.9036 122.842 42.2269 122.672 42.4945C122.504 42.7635 122.31 42.9767 122.091 43.1341C121.871 43.2914 121.622 43.4073 121.343 43.4804C121.064 43.5519 120.729 43.5891 120.335 43.5891C120.077 43.5891 119.836 43.559 119.611 43.4989C119.388 43.4388 119.197 43.3458 119.037 43.2199C118.878 43.094 118.756 42.9366 118.674 42.7478C118.59 42.5603 118.561 42.3357 118.582 42.0753C118.593 41.9393 118.617 41.7877 118.651 41.6231C118.686 41.4585 118.758 41.2053 118.868 40.8648L119.501 38.9317C119.553 38.77 119.587 38.6055 119.601 38.4409C119.61 38.3235 119.588 38.2376 119.532 38.1833C119.477 38.1291 119.384 38.0931 119.252 38.0759L119.338 37.7998H121.626L121.539 38.0759C121.409 38.1103 121.308 38.156 121.235 38.2148C121.162 38.2733 121.097 38.3563 121.039 38.4638C120.982 38.5725 120.921 38.727 120.856 38.9317L120.029 41.5014C119.969 41.6889 119.925 41.8449 119.899 41.9693C119.875 42.0924 119.857 42.2126 119.848 42.327C119.827 42.5789 119.878 42.7707 120.002 42.9009C120.126 43.0325 120.32 43.0983 120.579 43.0983C120.838 43.0983 121.056 43.0468 121.239 42.9438C121.42 42.8393 121.57 42.6919 121.691 42.5016C121.811 42.31 121.92 42.0623 122.018 41.7619L122.929 38.9317C122.965 38.8229 122.989 38.7299 123.002 38.6526C123.014 38.5752 123.023 38.5051 123.028 38.4409C123.038 38.3235 123.016 38.2376 122.96 38.1833C122.905 38.1291 122.812 38.0931 122.68 38.0759L122.766 37.7998H124.703L124.618 38.0759C124.482 38.1132 124.377 38.1618 124.303 38.2234C124.23 38.2849 124.166 38.3692 124.108 38.4796C124.053 38.5881 123.994 38.7385 123.933 38.9317L123.105 41.5258ZM127.772 37.7998C128.091 37.7998 128.332 37.8084 128.498 37.8256C128.723 37.8441 128.928 37.8871 129.108 37.9529C129.289 38.0187 129.439 38.1046 129.557 38.2134C129.675 38.3206 129.762 38.4509 129.817 38.6026C129.871 38.7541 129.889 38.9287 129.873 39.1248C129.847 39.4382 129.762 39.7173 129.614 39.9647C129.468 40.2123 129.274 40.4254 129.028 40.6042C128.783 40.7831 128.479 40.9177 128.114 41.0093C127.752 41.0993 127.349 41.1452 126.91 41.1452H126.778C126.593 41.1452 126.44 41.138 126.316 41.1237L125.907 42.39C125.88 42.4787 125.858 42.5574 125.843 42.6233C125.828 42.6876 125.816 42.775 125.808 42.8808C125.797 43.0096 125.825 43.0997 125.892 43.1526C125.959 43.2056 126.068 43.2371 126.218 43.2457L126.132 43.5218H123.783L123.869 43.2457C123.999 43.2113 124.101 43.1655 124.174 43.1069C124.247 43.0482 124.311 42.9652 124.368 42.8579C124.427 42.7492 124.487 42.5946 124.552 42.39L125.665 38.9317C125.719 38.767 125.751 38.6026 125.764 38.4409C125.774 38.3235 125.751 38.2376 125.697 38.1833C125.643 38.1291 125.55 38.0931 125.417 38.0759L125.504 37.7998H127.772ZM126.705 40.6587C127.011 40.6587 127.265 40.6271 127.467 40.5629C127.669 40.4984 127.842 40.3969 127.985 40.261C128.128 40.1235 128.243 39.9575 128.327 39.763C128.412 39.5698 128.463 39.3595 128.482 39.1334C128.505 38.8502 128.45 38.6397 128.317 38.4995C128.186 38.3609 127.968 38.2905 127.664 38.2905C127.495 38.2905 127.347 38.2935 127.222 38.2991L126.469 40.6587H126.705Z" fill="currentColor"/>
    </g>
    <defs>
        <clipPath id="clip0_234_5">
            <rect width="150" height="64" fill="currentColor"/>
        </clipPath>
    </defs>
</svg>
