<?xml version="1.0" standalone="no"?>
<!DOCTYPE svg PUBLIC "-//W3C//DTD SVG 20010904//EN"
 "http://www.w3.org/TR/2001/REC-SVG-20010904/DTD/svg10.dtd">
<svg version="1.0" xmlns="http://www.w3.org/2000/svg"
 width="700.000000pt" height="700.000000pt" viewBox="0 0 700.000000 700.000000"
 preserveAspectRatio="xMidYMid meet">
<metadata>
Created by potrace 1.14, written by Peter Selinger 2001-2017
</metadata>
<g transform="translate(0.000000,700.000000) scale(0.100000,-0.100000)"
fill="#000000" stroke="none">
<path d="M2405 5709 c-816 -66 -1470 -412 -1850 -979 -74 -111 -187 -341 -225
-458 -128 -397 -130 -935 -6 -1417 157 -609 562 -1142 1062 -1400 265 -136
560 -211 926 -236 282 -19 569 10 868 88 356 93 460 107 715 100 243 -7 364
-29 750 -133 77 -20 125 -27 210 -28 122 -1 104 -7 292 104 94 55 146 60 346
31 177 -25 217 -26 286 -5 145 43 256 284 192 418 -35 72 -77 104 -330 252
-109 63 -193 145 -228 221 -38 82 -44 230 -14 356 53 223 189 416 350 495 67
33 82 37 150 36 62 -1 97 -9 190 -43 133 -48 193 -53 236 -19 24 19 27 26 22
67 -2 25 -8 54 -12 63 -6 16 -4 16 37 3 60 -20 155 -32 201 -24 112 18 187
162 187 358 0 187 -64 374 -194 570 -177 265 -453 474 -705 532 -93 22 -94 22
-112 63 -23 51 -24 136 -2 184 9 21 69 89 134 152 126 123 154 162 138 191
-17 32 -45 41 -91 28 -99 -26 -160 -99 -193 -229 -9 -36 -20 -81 -26 -101 -5
-20 -43 -88 -85 -150 l-76 -114 -77 -17 c-75 -17 -76 -17 -93 3 -24 28 -40 92
-32 126 10 41 66 152 112 219 97 144 118 254 48 254 -49 0 -165 -118 -201
-204 -9 -21 -21 -90 -27 -154 -9 -98 -18 -135 -53 -226 l-43 -108 -92 -49
c-94 -49 -180 -108 -259 -173 l-44 -37 -49 83 c-181 300 -397 576 -589 749
-477 433 -1046 615 -1744 558z m405 -140 c301 -28 606 -139 882 -323 418 -277
840 -769 1089 -1266 114 -229 153 -381 153 -600 0 -231 -40 -391 -164 -647
-82 -169 -120 -227 -233 -353 -89 -99 -417 -404 -417 -387 0 2 29 39 64 81
240 289 408 657 461 1013 19 129 19 383 1 523 -51 378 -206 761 -432 1067 -72
97 -225 256 -324 336 -296 239 -695 397 -1104 436 -804 79 -1594 -304 -2008
-972 -309 -498 -404 -1084 -263 -1631 95 -372 270 -684 540 -966 118 -124 116
-125 -13 -10 -268 237 -490 608 -591 990 -149 559 -110 1143 104 1571 227 453
575 770 1060 964 336 135 835 208 1195 174z m31 -255 c109 -14 233 -41 198
-43 -33 -2 -46 -34 -53 -131 -29 -429 -153 -941 -316 -1313 l-43 -98 -48 3
-49 3 -4 260 c-3 271 -12 357 -51 511 -47 183 -103 291 -211 400 -85 86 -196
145 -319 170 -113 23 -265 15 -365 -18 -96 -33 -68 -13 95 67 371 183 747 244
1166 189z m3001 -729 c160 -33 321 -129 465 -278 322 -333 444 -750 277 -945
-47 -55 -81 -72 -147 -72 -84 0 -150 39 -214 125 -53 72 -73 85 -98 65 -28
-23 -16 -58 43 -127 79 -92 92 -113 92 -144 0 -64 -61 -66 -220 -8 -108 40
-121 43 -225 43 -102 1 -114 -1 -170 -28 -95 -46 -181 -140 -243 -267 -74
-148 -104 -271 -106 -429 -2 -264 50 -349 326 -519 163 -100 219 -147 247
-204 37 -77 19 -190 -44 -272 -52 -70 -129 -66 -318 14 -175 74 -287 98 -338
71 -11 -6 -44 -49 -74 -95 -93 -145 -164 -171 -313 -116 -283 105 -697 151
-1077 121 -70 -6 -129 -9 -131 -7 -3 2 38 30 90 61 242 147 563 403 807 646
196 196 233 242 335 426 135 243 228 475 270 669 26 120 24 325 -5 439 -27
110 -85 250 -157 375 l-54 95 32 34 c53 55 230 184 315 229 100 53 242 101
335 112 86 11 206 5 300 -14z m-1507 -320 c121 -226 202 -511 221 -782 l7 -93
-539 1 c-498 1 -533 2 -459 15 208 37 389 111 507 208 214 177 286 496 173
768 -14 35 -29 70 -32 78 -10 28 79 -114 122 -195z m-3592 -439 c327 -29 829
-159 1165 -303 118 -50 262 -121 262 -128 0 -3 -361 -5 -802 -5 l-801 0 6 103
c6 99 27 243 48 320 8 31 13 36 27 28 9 -4 52 -11 95 -15z m859 -538 c-103
-13 -289 -61 -364 -94 -228 -101 -360 -246 -415 -454 -20 -76 -23 -264 -5
-324 21 -73 3 -50 -52 65 -116 243 -196 553 -196 758 l0 61 553 -1 c388 -1
530 -4 479 -11z m2954 -85 c-4 -54 -14 -136 -22 -183 -14 -80 -62 -280 -70
-289 -2 -2 -12 3 -22 12 -11 10 -60 22 -127 32 -390 57 -881 220 -1250 414
-99 51 -131 73 -133 89 l-3 22 817 0 817 0 -7 -97z m-1998 -268 c2 -2 -2 -88
-8 -192 -23 -365 10 -613 111 -822 41 -85 64 -117 123 -176 80 -80 189 -141
306 -172 86 -22 254 -22 335 0 32 9 61 15 62 13 8 -7 -202 -97 -302 -130 -214
-69 -392 -96 -623 -96 -163 1 -246 8 -394 37 l-87 16 15 28 c8 15 14 53 14 83
0 77 36 347 66 496 54 270 143 563 245 803 l54 128 40 -6 c21 -3 41 -8 43 -10z"/>
<path d="M6010 4201 c-42 -44 -52 -68 -22 -56 45 17 68 16 95 -5 23 -18 27
-29 27 -71 0 -85 -44 -106 -115 -54 -59 43 -58 43 -51 -21 15 -121 69 -194
143 -194 80 0 153 116 153 242 0 111 -55 185 -146 196 -42 4 -47 2 -84 -37z"/>
</g>
</svg>
